/* XPM */
static char *_536927254423[] = {
/* columns rows colors chars-per-pixel */
"64 64 69 1 ",
"  c #01000C",
". c #010016",
"X c #02011C",
"o c #08061E",
"O c #010025",
"+ c #080427",
"@ c #0B0924",
"# c #02002C",
"$ c #0A052C",
"% c #030033",
"& c #090334",
"* c #0E0932",
"= c #03003B",
"- c #0A023C",
"; c #0F083C",
": c #100A36",
"> c #110A3E",
", c #141035",
"< c #181437",
"1 c #040043",
"2 c #0A0244",
"3 c #05004B",
"4 c #0B014C",
"5 c #100746",
"6 c #120A44",
"7 c #10064C",
"8 c #130A4C",
"9 c #18104C",
"0 c #050053",
"q c #0B0154",
"w c #05005B",
"e c #0C015B",
"r c #110554",
"t c #140A54",
"y c #180F54",
"u c #11055C",
"i c #15095C",
"p c #180D5C",
"a c #1C1255",
"s c #1B115B",
"d c #070062",
"f c #0D0063",
"g c #060068",
"h c #0D006B",
"j c #120464",
"k c #160963",
"l c #190D64",
"z c #13046A",
"x c #16086A",
"c c #1A0C6C",
"v c #1D1264",
"b c #1E126B",
"n c #0D0073",
"m c #0F007E",
"M c #140473",
"N c #180777",
"B c #170871",
"V c #1A0B72",
"C c #13027A",
"Z c #1B0A7B",
"A c #1F1172",
"S c #1F1079",
"D c #211665",
"F c #21146C",
"G c #221473",
"H c #251874",
"J c #23147C",
"K c #160380",
"L c #180487",
/* pixels */
"#1fh3%XO3wge-@XO1wfdBAq2-&XO....O+XX.XX@=7exfj3=O.%=0zgf=#$=fhq3",
"3qxf1#%%ehk3%O#%4cwki33==%%#-#&%%%%#OO##%=1qquup>##=4ejG2%#%0xui",
"gBj=%%3kfe3=%=ejq42;++#%10wxfhejjwuqj0q043=%==qecu4%#%=2s7-%=3fM",
"nw3=#3vj03=%1rxkp%&OO%%3ukeJfxwkxfjzczzlu42%==33wjl7%$%%3482%10B",
"88%=qkq4%=3qrr41%+%3qwVjl42-6%%%-1=4244iujjfu3=#$%eVx3=-%3ku3=%-",
",O%4ee4%%-rkr1==%%4lxzki3%#O+OO##%%%%=%14ejjje4-&%3fze3==3eur2OO",
" X3ek4#%3qur-#=3fjJf42%#O$%13440weq3==%###%24kjc33==34lq4113ra-O",
"X#uAr%#-ljq1$#=qfZw11%%%%=v3bqbjccl7t56%%%%%=30jeq==-%tvk31=14=1",
"04Gq##3qzj2#=4iup2##&=3fMBfk43141y2=ar3Hfxw3%%#6qb42##-2ee3#O>xn",
"gJ3=#-qbj4%=4kr4%O#%=tAfMz03==%==-%%%21ffMzk4-OO-4Dq1=#-qut=X#fL",
"Mf=#43Ae-#14Ve2+*#3vjeq==%%%====4=2%%#$#13eBju1#OO=0Zf2O-rzq%#qf",
"k1%-3ce3#%3Ffq#+#6pqeq1=#+;=2484tqqv=2%%%=3qeut2O&=wMd2%#=ez7==3",
"&&%=wl==%3bq2#%=qp8%#%=13qkeiukuuechZnBjr%OO$-ijc3OO4F04#%qjjq%O",
".O13b3-#4lw3O*30H3=-##23jxkqq3q41q3ewnhVt-*O#%3qhf=$#3qb4==qje%.",
"XO0S3===kf4%#3zg0=111pD4q4==%%#####O#O;2rruqq=%=uc03$O2ql3%=qp-O",
"$%hw2==req%%=uzh1=3fze3y-%===-%$-#%&.OO#=rlfc3===wSe%O=pfq=%2782",
"=3lq%=qx2-#%lj3=-%0Vx0##%=wwcjcq7bfxut1====1fVq=%-0cr=$%ek4=#yjg",
"wlq1#=zf%O#4uq1%=tbe1==%1puGwjwup1Bwitqq3=#%qjur=%23k4%#3ei3#%hC",
"dk=%%3Ve%#4t2=33hh4#O+4wAe=-*&%%====&%D0Ve2=%=3tu1$#te1%%2zw%OqB",
"M0;O=kfq%%li%#3fnf-+X$eVe3&#+O%-1=2%O+=quqe2%%2pz3X+3kq3$2hx%$2u",
"Nq*O4x31=8jq#O0zf0%#3jxq%#%23qqkwgV0-$#%%2ku322qfl$O%rzq#&fz%##6",
"heX$ue4=3ie=#$qxi=%2cB3%##2qcxiqfJwjy2=#O=tjwq==el6#%=Bf%%qqq%$O",
"f3#&le2&fz4%#2eu2%=yu1X@=0Seu=-&6-=23Dwr%O%3jx=%1qi3#%jzt%=4l3$.",
"s=%=ue#%Vh2%1tp1##4q4-XOeNfe=2#+##O#21Aea%#-kj2%#=je#%0cq=#yk0#@",
"-%1wu3O&fg%%qe46#&Dq=#%4Sg3=%%1333=$##=3qq==3qt-O&cj3=14q4#=fc&X",
"+#0xu=#%Vz%%jx2%=2qt&%qGe0=%%ypwlirq=%$-ket=%4q3O+eju112D3#%xw%$",
"X#wMt%#2kq%=ff=%3cq1%2Zf4%3qjxq0rqfMnw=%qjq2##kf&O1wjq-%u4&%Vg1#",
".#fM5#=rq3%3je=%fh4=13zw&Oqcce12%=wgnM3==1l3O&qb6#=qz0%%ut*#ext%",
".#fz-#1lt==3pe%%jf7%qju4O&le%$O##&==4ju1#-qk-#qut=%1j0%%kj#Oqzq=",
".%fx;O1k7==4t3%%uk6%0G2#%8j0O.#-22&#%txqOOlx-%=uk1%=k3%%ff#$4k3=",
"X%jj$O3j3=%2u3#-vq#=we#O%tw0=$uVeuq=#%fzO$wV5#-4z0#%i0#%hN2##8t3",
"X%ee##qct2%2p4##44##zu<.=Gw3=2VhfjjtOOwz%#wz2%#3Ze%+r4+#wM8#&8r3",
"O$ej%#0j4%=qr=#&a8$%fz$X1u3=%yjw31jr++qk#-3fp=%2ww&+t4*#BB=%3r41",
"X%uk-%el6%3ll3#%8=#%je%O1ev=&=jx3rf4.Orq;#qAu=2=uq%$p4&%fV%&1c33",
".#ef=#0j4%%qz0O#Af=4ze%#=tf0%2ujfzF1#&qi;%0f3==pu3O$k0&%wj-#3e41",
".$jV2%4l8%%3Mf%$fh1=qk8%%tgf=-=3wl3==2bq%%fxa-1ui1#=xw%%uk>#quq=",
".Owz3%1t4=%4Kn#Owj-#=pp=#-Mhr#OO&#%=4v3=-=zx%#4l7=%4Be%=jk$#1l3=",
"o#ecr=-8r1#1nh%Oll4%=7uq#%fgp2%+#==ql44==3ke%#3u&&1jx0%=fqOO4i2%",
"O#0jq=%-vq%=zM-%3wq1%2jc%%=qrbef0fVj43=4ebq=%%eF#%0Be1%3c0&Ovq8$",
"$#3ku=#-jw%=jx2#3jxq%%wk4%==73ejxce32=330e-;%2l4O-fV4&=4u3#$eq%O",
"&%1ep3O-fV=#3uy=%qjj;O#yru3%#O$$6#&%%=3el2&#1r4-O-ff=%3iq311ii#O",
"==34q2#%zz3==2q2%%uj2$O&rlr3%##O##O#-1ve4%#-wc-%#4je%$4k3-1qj4#.",
"i3%-uu%#0xu=O:iq&+=rt3-O13rueeww334lul4=$#2qZe%#=rt-$=ec&%3ze=%O",
"c4#%jx-%33jq+X3F8#%=ql2%%=24jchBvqGwu4-##-3cfe#+3r-#%3fi%$wBq%&&",
"fq%%qf4=%2AwO$3fz4#%qec0q%%%&6144a=7##$%1eVd0%&-tt&O2qq3%%jj1=24",
"wi2%1kj1%%ec6#=jVq5#1uejt4-%#%##%%=%%%230ceq%%2rkq##qu4=%=lw#%4j",
"qkq1%pxw#+2ee42=qxq31122rjeq01-%-%343kdcq2-#&=lhq3%%uk2=1ru2O%wC",
"2qfq%%wc-#%4xw1%3tkw01%=3tjjeqt2134lcfce8%#&64jf1=13u4%=0l7&O%jC",
"O=JwO+1kl3%=xzi3%%0Zfc1=$$#1yueZzcqi1=%$%%10il33=2ju5$%4Mj&+=4jZ",
"X$jj=#=ruq%%1k04%%=3j0r1%#O#=30fwf18#$O%%3eku31=34ju%O3ezwOO3ju3",
"X%3jf1==4p2=%=lfi=&O&8qceq3%%%%%%%$#%=0fzzq5;#%=uzu3#$uzq1%=qe2%",
"=%%rBf1%22D1=24xju#+X$4rkjir32-%%#%;2lfVVj=%##-2li3==7jj2%1tk3%$",
"e3O$hMq=#80k3%%=qkqr%OOO24eccxjkv4AwAeq3-%=%=qqr>$$=eMz4%#wMz3%+",
"nq+.qNf3%#qe47%=13Gwr2#*%=3euqqqqqwewq=%#%24ulq2$+%4zMq%#-zhq11=",
"Cz$X%qzj=O$%sqp3#$10xwVw32=%%#OOO#%#-%-133efui1%%1qujq#X=ucq##4j",
"hc=%$=cz2&##-su3&O%=wNhfwp2%%%O+#%%&%%4tqcku3===3eui4%X$tu3=#%qf",
"%2b0==3qlr==%2ql42%#%-q0kjuejjjfwfekecjwl3#$#%1qzjq2#%5=rl-#%qvq",
"X%eAr-%=qkuw==14bq7-%#=24qruufzzVzcqjqlq1%%#%=rkju2%=7tqp-#%upr1",
"$%1ue3#&1jMM02##3zhVj1=##OO+%&242--&#$$%=13uwku7&$#=qzzq-#1fBe%%",
"=-=2kq>O%3wzft%#=3cffD4-%##O##%%###%O%##24kfVrq%O$%2zz01##xMf3%$",
"gj-%qqa-##%tejq416#%-4s0luefw3=%41q1q4iqii4s1;OO%7ujzq%$=4Nh=$%=",
"Mz=%%1ty6%#=3rety=#O#-=qefBVxe58yeuujjuqr26%%#&2quuu01%%tuf0##2q",
"qqfe%&=qce=%%--4ff34-O#$%=374449443s3q=%O$O$%qfhzq2%%=4quu=&==ec",
"8qZw%#=whVu2OO#-fMci=$+O&##%%%132%21=%&#XoXO4cKnMq&O$2jher#O2wVz"
};
