/* XPM */
static char *_535798043937[] = {
/* columns rows colors chars-per-pixel */
"64 64 39 1 ",
"  c #168E01",
". c #1A8F03",
"X c #1D9303",
"o c #1E9B03",
"O c #218F04",
"+ c #249505",
"@ c #2A9606",
"# c #259A05",
"$ c #2C9B06",
"% c #2D9608",
"& c #2E9B08",
"* c #309707",
"= c #329C07",
"- c #389F07",
"; c #309708",
": c #339D09",
"> c #3A9E0A",
", c #1DA003",
"< c #26A104",
"1 c #2CA206",
"2 c #2DA806",
"3 c #2EA208",
"4 c #32A207",
"5 c #39A507",
"6 c #33A907",
"7 c #34A209",
"8 c #3BA30A",
"9 c #34AA08",
"0 c #3CAA0A",
"q c #2FB106",
"w c #3DB10B",
"e c #409E0B",
"r c #43A40C",
"t c #48A50E",
"y c #43AB0C",
"u c #49AB0D",
"i c #43B20B",
"p c #48B50C",
"a c #4BB90E",
/* pixels */
"r;=:8.++%:=8%;;8462@4+;@:r0=:328y0$&5y$;$44=@01@4$-=#:-$$@%;@&;r",
"t;+=8XXO%:;>%>:$444+$&%O*:08=&280io$4948468>+i&#$$@=#>>$@=$@%#>e",
"e>++=X++%%%;%783484@%$&@+#>8$$490p,+4448#0@uXi++#4@44yr=$8%X:@>>",
"e>%@%XX#%@>;@&7$=8=*%+8#%@47$449<i<+$27-#y+8#0+@$$$94yr@==%X8%>>",
">>;@=+X@+=;;@77+;0=>%.4%*$:7==@7#61+#14:#y14$7+%&$$44u4@:8$#->;>",
">%;=$@#@+=>>+r>&$8=>:X$=@88=4@$7=4w+2X:910&4$=+r=X$37y7$74&&$>=:",
";+%*+=$%X@>>:r:4:0%>>1===:r:$3=@4$1$1X@469<&&7$80++77t07>:&&=;>=",
":@%%%@;$=+;>e8;$7y;r02>7:=t=@@4#7$44##+141=&+047y++&7u7=8>=&4=>=",
"%++#:@*+8+;re>*=0>8804800$=>$$$#=#4&:1#=##73@4i47@#@7ro@%8:&57=>",
";+$@=$%+8O;>>e@=9=8r44608=$$&4$@$o4188&1#$:$1;018+$8::X++1:=89+>",
"8@&$+;%@*>;>>>%;440y7$708&4=17*@+==178&$4#=10=931 #48@XX+47870#=",
"0$=:O4==@;%:;$8:=49r0<9y1474==>@+-=$888@:$$48>99+##77@%o*89r$61$",
"438=$$>$$=&&;$:4=&200<&w@#1=#$t@+;&387>&7;#84:67$@#4=7&#;870$<=4",
"+%834+>$&#&&$==$441790@93$=:X%t-+&7&=:4;>:@7=8=74$4&4911@&1941$>",
"$:=4$&4&7&:=@#8#4==49y=8&8:3X$t-#+8$4:&&::%=;=747$4&8&6@#$$452#7",
"<0#7#4@14&=&#&==#1=$0y87388$.@r>$+=74%$=>>@=4-=;-&2$83=9+<1797<1",
"#043o<+&##$$@=40##$-8p701=r8++8r#@%74:&:88=4>1=>-74$&740X$#402&#",
"#w8+#o$4$%#=8@1y###=7y-0$87r3#;8#1+%&;=:>;:&44$0=561&yi0w$1609$#",
"$q9@+#w1$=@48;$01+@$4040=0$==#=r&-&+@;:;r%44&91r8y2445i461966641",
"=<6#$46$&&$8>>+i#+#@=4&4;08=&@=8+=8X=%%:>@85$048801410p0646i2$9$",
"0221-06&&@@0%u+i#@+=884344y=@$$=o>-+$%$=>@49&740y03328pu647w4#4&",
"07<&704#$==y@r#0X$&=>:&&&80=@+@@#:7#&%$4>#&6&=&7y=4#14pi92406$&4",
"874=874##$$y=8&0+$-=r@&#$4==@@@#&>>#&=@94X13:$+<y$=&##yy94$66414",
"-87=$8-X#;&y7-=8+=:$%--+#;&==$+&407X@7+34@$37#@#6#>$#$4944#42&1&",
"198&@#=+++#yr;@8$48=@#*+++#88=+@:y7o#8#374#;:7=&<+$@$<&86<X6$;31",
"&49&;+O:.X<yy$+4=58=;++=.+<0r*++8=4##4&&@2&806491+@@=$=91,X3371&",
"%708:@+;XX4ur&+$4888;@O;OX9r8%@+>X@##$==$17870w6=##$4+=4#oX#$86&",
"4497+%+O=X7r704&:8:>%%+X*+9tr=4+=@&#X$4&36&770w67$&4=@$3#1oo1766",
"$=44X=%+%+4r:04=487:+;%+$+8r;7$@%:&+X$7&$6$=4yw24477#443#1##-1#0",
"1==&@%>$+@>r@44748:=+$;@.1rr=7$%&:$:X$77@6&4846w@400&47@$$@&$9X4",
"19@=4#:8+%7r@$78087:&X;$.4r8=8$%&+8&+$=8$4@&-$40$%>r447&$<%=4w#2",
"14$+$$>-&#>8&47704:&=#%:X&t8>4$>;X9&$&88+1#@>@$r&%$r77&=#<48=742",
"17X$=+&=7@77447$014#4$@&+=r784;>:+&4#=88&2+#;4+87$+807#3X#$8@776",
"2$X#+*#2918&014&r&=$=8=X&8r=:8$e71;1$%>7@$++;$@:>%+rr=##$+:71289",
"4+X++;&&-&14=62-8@$<#88+470&78%r86>74@r;%$1+$$+=8%+6:;#$9<4=1198",
"7+$#+>r=@>&=;4487#&$#08$;07&7>78868y7@$:%#1$$;X>-%@13:$:0o$47156",
"=+$=;>;$@r:@-=4:8$@4#74:&01=9:8t747i8$@$$@#1$@+%-*=141=97<$#4@49",
"+%+$0=>+%r:@=>%8::&=@:>0401=340y9=4y7@$%%;@$+@+@>;4$4$&77$2<4#&4",
"+%:&88&X;r-@@8+0;888;88=88<4=4708&:04=+%:=@#$+@@;;4$$%$74&411$&1",
"+@:3>81X+r8@+-&1$-08=;$@48117=487&%8@:@$=:&#@%=-=;&1$:$7=-&<#4@>",
";;7&88r++8r+#%=$$4y0=4@%@8&$7;#=u%+0@%7=-8@$@4-;;>$$=$$78=@1#+&>",
";;4&878$@=y@$+=&=4r>;7@=$8&==:#&t-+-:%7e=7@-====>8+%#;$:r=&$@#%8",
";;8%y$7=#=r=1$@=7-80$;=&$=4:=3X%t:++7*=r0:4;4#&@88.++;;8r;=$&%$4",
";:8%8881@>r%$r.@108=&$4$3=&:>$X#r;$#=->4804&&@4@78XO+%*;r;&$#%>;",
";>>-4y:&$=8#%8#+=y8$%&0@$7$&8r+#8r++$-@#=0&3&41@%7OX@%&=8=74X$;>",
"8=>;$=$@@@=+@:#+780%@78++3$7783@=r@#+$-#39&$&8&:%%+.@%17>7&4++%t",
"t$>:#&##=;=@+;##477@+=8.+&@0;>=#:r@##+-@$3=@38;>%7%.@@=7>=&=@@@r",
"r1;$#=&%:;7@##+#477%X48 ++%0883$:t+#-X:u4X7+188;::&+%+48-$&8;%;>",
"r3>+X$974>=+#@++0$6$++7.X%$7u4$$:8X@44>:0$#%$>8*>:&@=+&784&8&$%:",
"r&8X+$077=$##@@+p+&3=#%+X$&78%#$#=#+$078y:.&@=e>%:%:=@&-r7;4:&:$",
"=@r1X<076&@$#%:+a@3<:$$+X%$7:++4@&&$@8y588++#$>e@;$:;&@%u4=&-&>;",
"@@:1X&464#$<#@=@746#:&3#X&#:7X$7+$4&#-807:;++$::;@@:;4+@8#:;&88:",
"+=447$403@@$@@%*$44<:$$#+7333#ww#<<-1$=:7:8@+&;;%$%==4@++&@8@08>",
"#&049<662+@1==@-47:3&+<X#802<<w9#2#4&:$7::;8$#=:=%&:%=$;+%;>&924",
"<0u0219u2+=7:=$44::&$++X#3r33ow4&1$4#:;:=;%8317=0+%7;@@8$+;:$8<1",
"24iy248y==:47:44%7$:+@+X+&7<0<94#@4&$@;847:0704=y+=4:+$r>O=>=7#1",
"<4y02=70:>==$==$@8$%+;@X+4=1@-9=@$7$%+;8784r1r@=83>=$X$t=@+8$7&o",
",#043:47=>=##2%#$>.%@>++X&%%#=0$%%+8@%%8577:>-=@:48><X@r>@#:84=#",
"o#=3&7$&-7&$+113%7O+&r+%#;$$X;8$8:.4=%$>5747=7=#87=80++4y+#@87:@",
"#<$%&3+:$;&&@#&1=;+.8>%7=#%@#$4%>:+#:@:>57&4&11$94780&@=8$@+&4=&",
"&4&$&3#$&$;:$@$461+ 0&@88=;@+=0@r71%4$=848$$=###7&0=-=@-r&$@#=;8",
"4:81$&#$=$=:=$$0$2#X0$X=:>4@+7r%889>:==>&4#&$3##449041$:r@$>+$;>",
"8:817$#&%$=8=@#p+$1&=4.@0r&=#787r828r:@%-##&19$#=47y=4=::+;=%$=r",
"8:-7>++#=$;8:;&a@21$$+X+ry&3@747r=140r$$@&4+$y33%738@==#$X==@=;r"
};
