/* XPM */
static char *_536927264874[] = {
/* columns rows colors chars-per-pixel */
"64 64 256 2 ",
"   c white",
".  c #100000",
"X  c #880000",
"o  c #980000",
"O  c #AA0000",
"+  c #BA0000",
"@  c #CC0000",
"#  c #DC0000",
"$  c #EE0000",
"%  c #FD0000",
"&  c #440000",
"*  c #540000",
"=  c #660000",
"-  c #760000",
";  c #220000",
":  c #320000",
">  c black",
",  c black",
"<  c black",
"1  c black",
"2  c black",
"3  c black",
"4  c black",
"5  c black",
"6  c black",
"7  c black",
"8  c black",
"9  c black",
"0  c black",
"q  c black",
"w  c black",
"e  c black",
"r  c black",
"t  c black",
"y  c black",
"u  c black",
"i  c black",
"p  c black",
"a  c black",
"s  c black",
"d  c black",
"f  c black",
"g  c black",
"h  c black",
"j  c black",
"k  c black",
"l  c black",
"z  c black",
"x  c black",
"c  c black",
"v  c black",
"b  c black",
"n  c black",
"m  c black",
"M  c black",
"N  c black",
"B  c black",
"V  c black",
"C  c black",
"Z  c black",
"A  c black",
"S  c black",
"D  c black",
"F  c black",
"G  c black",
"H  c black",
"J  c black",
"K  c black",
"L  c black",
"P  c black",
"I  c black",
"U  c black",
"Y  c black",
"T  c black",
"R  c black",
"E  c black",
"W  c black",
"Q  c black",
"!  c black",
"~  c black",
"^  c black",
"/  c black",
"(  c black",
")  c black",
"_  c black",
"`  c black",
"'  c black",
"]  c black",
"[  c black",
"{  c black",
"}  c black",
"|  c black",
" . c black",
".. c black",
"X. c black",
"o. c black",
"O. c black",
"+. c black",
"@. c black",
"#. c black",
"$. c black",
"%. c black",
"&. c black",
"*. c black",
"=. c black",
"-. c black",
";. c black",
":. c black",
">. c black",
",. c black",
"<. c black",
"1. c black",
"2. c black",
"3. c black",
"4. c black",
"5. c black",
"6. c black",
"7. c black",
"8. c black",
"9. c black",
"0. c black",
"q. c black",
"w. c black",
"e. c black",
"r. c black",
"t. c black",
"y. c black",
"u. c black",
"i. c black",
"p. c black",
"a. c black",
"s. c black",
"d. c black",
"f. c black",
"g. c black",
"h. c black",
"j. c black",
"k. c black",
"l. c black",
"z. c black",
"x. c black",
"c. c black",
"v. c black",
"b. c black",
"n. c black",
"m. c black",
"M. c black",
"N. c black",
"B. c black",
"V. c black",
"C. c black",
"Z. c black",
"A. c black",
"S. c black",
"D. c black",
"F. c black",
"G. c black",
"H. c black",
"J. c black",
"K. c black",
"L. c black",
"P. c black",
"I. c black",
"U. c black",
"Y. c black",
"T. c black",
"R. c black",
"E. c black",
"W. c black",
"Q. c black",
"!. c black",
"~. c black",
"^. c black",
"/. c black",
"(. c black",
"). c black",
"_. c black",
"`. c black",
"'. c black",
"]. c black",
"[. c black",
"{. c black",
"}. c black",
"|. c black",
" X c black",
".X c black",
"XX c black",
"oX c black",
"OX c black",
"+X c black",
"@X c black",
"#X c black",
"$X c black",
"%X c black",
"&X c black",
"*X c black",
"=X c black",
"-X c black",
";X c black",
":X c black",
">X c black",
",X c black",
"<X c black",
"1X c black",
"2X c black",
"3X c black",
"4X c black",
"5X c black",
"6X c black",
"7X c black",
"8X c black",
"9X c black",
"0X c black",
"qX c black",
"wX c black",
"eX c black",
"rX c black",
"tX c black",
"yX c black",
"uX c black",
"iX c black",
"pX c black",
"aX c black",
"sX c black",
"dX c black",
"fX c black",
"gX c black",
"hX c black",
"jX c black",
"kX c black",
"lX c black",
"zX c black",
"xX c black",
"cX c black",
"vX c black",
"bX c black",
"nX c black",
"mX c black",
"MX c black",
"NX c black",
"BX c black",
"VX c black",
"CX c black",
"ZX c black",
"AX c black",
"SX c black",
"DX c black",
"FX c black",
"GX c black",
"HX c black",
"JX c black",
"KX c black",
"LX c black",
"PX c black",
"IX c black",
"UX c black",
/* pixels */
"* $ ; . ; ; @ $ o : X ; : & UXUXUXUXUX% - = # . & * ; : = - * . = . ; UX& UX. . UXUX. UXUX; * . * * : . O * O $ - * O ; & - & . ",
"X UX. ; UXUX* = : * UX. . - UX. UX. : - & $ UX& * . : : * = : UX. O UXUX; & - . UX. . . . & * UX; * = ; . $ & - O o o + : = ; . ",
"* - & . . = ; + UX- & UX: ; & UXUX. o UX: o = * & UX* X . : UXX ; . UX; . O . UX. UXUX; . ; . . * & ; * : o = @ UXX O ; . ; . o ",
"* - @ . . ; = - X * UX& X . ; UX; UX; * . - # & . = UXUXUX. UX+ & * & : . = : ; UX. . UX. . . . - = : * = ; * O O O = & = . UX% ",
"- O ; * . : - $ . # # - UX; . . UX: & X UXO ; # = o : ; UXUX: . * & . X ; . . UXUX; UXUX. . ; . & : o : & = UX= + O * = X & & X ",
"= . $ X . UXUXX - : ; & ; . UXUX. : = * ; $ : UX= o ; : & . = - X * O - . . UX; . . . . UX. ; & : : @ UX& : & O - ; ; : X : * - ",
"; - = * : UX: @ @ ; * UX; . . UX: - - ; . - O ; : - & UX: . ; . O * ; : & UX. UX. . . UXUX. ; . X X # - & ; O ; O : * - = ; X & ",
"& UX= + : . UXUX& UX* ; UXUX. ; UXo X UXUX. X O . ; & X : . UX% O ; ; * UXUXUXUX. . UX. UXUX. - @ : - $ * + X : * . : & & ; o ; ",
"+ O UX+ : UXUX. & UX$ & . . . & ; . X . ; * . - $ # + @ UX& @ - o UX& = . UX. . . ; * . UXUX. ; $ $ ; - * : : o : UX; : ; . - : ",
"# o O UX: . ; . + UXo : . . UXUXUX* * UX* - - . UX; & = = o . ; + : = UX. ; . UX. : : . . . UX; # : UXUX; O UX; . ; = . ; . = = ",
"- = + - ; UX. : X * : . . UXUX. : UX. * = & = = = * UX- o * & & - - ; UX; UXUXUXUXUX$ ; UX. . : $ UX: . . : . - = - UX. & ; & + ",
"; : X & X UXUX: X - : : ; . & ; . - $ * . = UX* * : $ . & . UX$ UXo . UX. . UX. . - - : . UX; ; @ ; : . UX. ; X X & ; ; = : . o ",
"UX. & . . . UX. & UX- ; : UX. . & ; ; @ O O @ : . # UX+ UX. % : O : * UX: UX. . o : ; & ; . . UX& + UXUX& : : : ; . ; : X & ; UX",
": . UX% $ & UX; UX* - O : . ; ; . UX& ; & : UXo # : ; ; . * . - = ; & ; UX; UX. UX& ; : & UX. : & UX@ UXo - & UX; ; . : X ; & : ",
"& & ; UX. . ; UX. & o O * : . . . & . - * & . : UX; : : . ; & . @ UXO & : . . UX: @ & ; : UX; + & * ; : & ; = ; . : : ; o UX& & ",
": & & : UX. UXUX. : + UX; UX. UX& ; . ; . UX- ; & & UX: UXX ; & . : : . X . . . : O = * . . : - + : UX% + o X . : : : . X : . : ",
". UX: - : UX; . UX. : - * : ; UX. ; & ; . . ; UX& & ; . + # @ : = - ; = ; . : = # & = % UX. X ; X $ . UXUX. UX; . UX; & - - & . ",
". * & . ; & . . ; UXUXX + UX: . : UX. & & : & . UX= o - X O : $ * ; - ; UX& UX& - UXo = . : X UX& UX; ; * UX; . . UX. X - = & : ",
": = : UX: . . . UX; UX& o X UX; UX. = ; & UX. : ; : : & . % * * & . . - = & . UX; & - - UX. : . $ UX- : $ . & . . UX; - - ; ; - ",
"* UX; & : UX; . UX. . ; & . ; : = - UXX UX. . . ; O = . = ; = * o UX: & & @ ; @ = & = + ; = X ; . ; * & ; ; UXUX. ; UX- - UX. ; ",
"* : ; UXUX. . . ; UX. : . : : & UX@ + : : . UX. & X & ; = ; & * UX; . ; * = = @ X & = @ . : : # UX@ O ; . : . . . & = o - UX. . ",
"- ; . . UX: UX; ; UX. . * : . & . - * . . UX. . & & - & & & UX= * ; UX; ; ; % O - & : : UX@ * + UX# = @ = UX. . ; : - X - UX; . ",
"- ; . UX. ; UX. . UX; UXO UX: : : * UX= : . . . & & o & ; * ; ; : ; ; : . & @ O X ; . ; UX@ * @ UX+ # . . ; . . . : - X X UXUX. ",
"X . UX. UX. . . . UX. . % @ UX; ; UX* o = & UX. UXX UXUX& : - = : : UX; : + o o - O & ; UX$ & # UX; : . . . . UXUX: = X X UX; : ",
"= ; . ; . UX. UXUX. UX& % = . - % & - & : UX; . ; UXUX@ & ; - o $ ; UX. X UX; X & . UX* UX$ UX+ UX: UX: : . UX; . : : o X : . o ",
". ; . . . . . ; & . UX- % . & ; : * . : : ; . ; UX& ; & - ; . . ; ; . . . o - . . = & * : @ O UXUX. : . . . . . . : UX- - & ; - ",
". . . UXUXUX. UX; . UX. + : O * = : X # ; = : . . ; & X UXo UX* . ; . . X UX= : O . - - - o ; = @ - X & . ; . ; ; ; ; * X = - = ",
"; . : ; & : ; * * = UX+ ; + * = ; O O * - ; UXUXUX: * : # . ; UX: o UXUXX : UXX - UX& UX. X ; : UXo . . ; . UX& : . ; . = X X X ",
": UX; . : UX; & & & ; % & * UX. X - * . o : ; & UX. UX# : . ; & & UXUX& - UX- ; ; X X & : o ; - . . & . ; UX& UXUX. ; . = - X : ",
"UX& - . * . & $ . X - * UX+ $ o O : & * * ; & . . UX& & : ; ; - : & ; . - o UX- : & : . = - . - : . . . . ; ; ; ; : . . = X X UX",
"UX. : # UX; . ; & = # ; - . # * UX& ; : X + * ; UX. ; X UX; . - & : . : : - UX$ : = o - * & & @ : UX. ; UX& UX: ; ; . . = o - . ",
"UX. & & ; * + = . & & @ @ o : * X @ @ ; - UX. . . UX; : ; & UX& : O & - o @ & + - * UX. # . - UX$ & UXUX; ; ; . UX. UX: = X = : ",
". = X . * X ; - & * * : = : . : . . o : : & & ; UX; . . ; . . . : . : : & X * $ UX. X + * ; o * UX: & & ; . ; . ; . : * - - = ; ",
"UX= UX+ : = : UXUX; # . o & # & o UX+ X . - ; - . UX; : & UX; UX. * o # & & = UX; & . # ; : O = ; . UX. ; ; . & * * - = - X & : ",
"UX; - * * ; = $ . . : : & . UX* UX& + : = : UX- UX. . ; : ; UX: $ @ * : : X O O UX. X o UX; + UX. . UX: ; ; ; - X X X X X - & ; ",
"UX. X UXUX: : O & : . ; . X ; & : & ; & & ; O & . . : UX. : : - = * X . o X @ : . o @ & . ; X UXUXUX. UX; UXX o X X X X X X UX. ",
". : - UX* ; . & # ; : UX: . ; & + : UX; # ; $ * . . UX; . . ; ; . * X O - # UXUX. - ; UX; UX& X - UX. . UX; o X X - X X X X . UX",
"& UX: . : : : & X & = UX. ; + : UXX & ; - & # - UX. ; ; : ; . % ; UX- X $ UX: : . X . : & . UX= ; UXUX. & = - X - X - - X = ; ; ",
": & ; . ; ; . ; & * & UX; ; - UXO - . ; % = $ UX; UXUX= . ; = . & UXo : - ; & UX@ O : & & UX. X - . UXUX. * X X o X o X X = ; : ",
". UX& & & ; : & . # : UX. . $ = + . X : ; : + ; . UX; UX: X : X : = ; . UX& . ; - o ; * * : ; O UX* . UX. . X - = = & = * * ; & ",
"UX: UX. UX. ; . : $ @ * UX. ; & ; UX. : ; - UX; UX: UX& X & $ = & O . . & ; . - - # . * & : & O . = ; . . & = : ; UXUXUX; ; . & ",
"; ; : . ; : . & & : : & ; . + UX+ ; UX. - & & UX. UX& ; - - * UX= = % ; & ; o + ; ; & : ; UX: X * - X UX; . . UX. . : ; UX. UX& ",
". ; ; : : . : : ; . ; - . : o - . . UX. UX& : ; UX= ; X @ $ : - : UX: . UX& $ UX& & $ . ; - ; & X . : . . o . : ; ; UX. ; . UX& ",
"; ; : ; ; ; : : : UX. : UX. . o & UX. . : & . UXUXo UXUXUX= * UX; . * . UX; ; UX; # : $ $ + O : & : . . UX+ : UXUX. & : ; . . : ",
"; ; : . ; : ; : : - ; + . : UX: & . . UXUXUX. . . = & . ; ; * = . UX. UX* : * UX= : ; & : : . O * . UX. ; UX; ; & ; . . UX; ; UX",
"; : . . ; . UX& : & # . . . : & ; UX. UX: . : UX; & ; & - & UXO + : % ; UXUX: UX. o UXo & . : - ; o UXUX: - - UX. ; UX. & ; ; ; ",
". . . . . UX; . & $ $ & . . ; ; ; UX. UX. ; . . UX& ; ; UX& o UXo : - : & . ; UX; UX= & ; . : O . . . ; UXX : : UX. . . ; UX; . ",
". UX. . . . UX= - O ; : UX. ; = = ; UX. . . UX. UX: . UX; UX. + - : O = ; UX. ; ; UX; : X X * & : . UX. ; * & o ; . UX. UX. & UX",
"UXUXUX. ; ; ; ; o . : . . . UXUX; UXUX. UX. ; UXUX: : ; : UX: X = O = - : : . . . ; UX; . UXUXUX; . . . . o & & . UXUX; . UX. UX",
"& . UX; : . . X ; & UXUXUXUX. . : . . . . . UXUXUX- . . . UXUX: = & o $ X UX; . . ; . ; . ; . . . UX. . UX; - o . ; UX. ; UX. UX",
"UX; UX: ; X & & . . UX. . . . UX: . . UXUXUXUXUX. - = . . UX; UX. : UX- # UXO UX; . . UX; UX. UXUX; UX& ; : # - . . . UX. . UX. ",
". : UX: . * . UXUXUXUX. UX. ; . . UX. UXUX. . . . : & . ; UXUX. ; UX* - # # UX; . UX. ; UXUX. . UX. UX# O . . . . UX. . . UX. UX",
". : UX: . : X : UX. UXUXUX. : UX. UX. ; UXUX. . . : ; ; UX. . UX. & ; - : UX$ $ UX& . . . . . . . ; O & @ UXX : UX. UX+ ; . . . ",
"; ; ; ; ; * . ; UXUX. UX. . . UXUXUX. . . . . UX; & X ; UXUX. . UXUX* X . & * O . UX. . UX; . . UX: : * o UXUX* UX. & ; & UX. UX",
". . ; ; = * . . UX. . . UXUX. . UX. UXUXUXUXUX. UX& . . UX; . . ; X * + & . X o ; . UXUX. UXUXUX; UX* & = UX. = . . & * : UXUX. ",
"; UX: . - o UXUX. UX; . UX. . UX. UX. ; . . . UX: ; . . UXUXUXUXUX: + ; = + - # : . . UXUX. . UX* X * * @ & UX; * UX& ; UX. UX. ",
". : UXUX= ; . . UXUXUX; : & ; ; . ; . : . ; . . . ; ; UX; UX. ; : # & UX: # - UX& . UX. . . UX. UX* @ + # X & : UXUX. ; . UXUX. ",
". UX= * & : . UXUX; ; UX; UX: . UX. ; . ; : UX. ; . : UX. . . ; X ; o ; : @ ; * . . UX. UXUX. ; UX; O X & ; UX: * UX; . UX. UX. ",
"; o . * . UXUX. ; UXUX& : . : & UXUX; . . ; ; & o & ; : . . UX= & . - * - o UX@ . . . UXUX; ; : . * . UXUX: : : X . . UX. . UX. ",
"& ; ; o ; UX; . UXUX& UX& * & : . UX: X = X = . : * = : UXX = & UX* UX: O UX; : UXUX. UXUX. ; . @ & - = - . UX* # UXUX. ; UX: . ",
"; ; : UX; ; : & ; & ; ; ; & . & UX; = . : : . ; : = : UXX X = UX= & . ; & . : X UXUX. UX; UX; - o O * . $ : ; ; & @ * & . : ; : ",
": o UX; & UX; : ; : UX: UXUX& . . UXX : : + @ UX: o & & X - = & * X : . $ . * ; ; UXUX. UX; UXUXUX: & @ & UX; : * & o & . . * ; ",
"O # - & ; ; o - . & - ; UX* ; . ; . . UXO = - : X = X X o & ; . X ; & : : # # : UX. UX. . & ; & : X + : . ; = : X - = $ * ; ; ; ",
"& $ UX. . * & & ; . - ; . : UX. . UX; O . ; o : * = = = X = & . UXUX. ; - - X . UX. UX. . & : : - ; UX- O + . ; UXX o . ; . ; X "
};
