/* XPM */
static char *_536927274634[] = {
/* columns rows colors chars-per-pixel */
"64 64 92 1 ",
"  c #0B0600",
". c #0E0C00",
"X c #120C00",
"o c #1A0E00",
"O c #0F1000",
"+ c #151300",
"@ c #1A1400",
"# c #1D1B00",
"$ c #211700",
"% c #221C00",
"& c #2A1E00",
"* c #311E00",
"= c #1F2000",
"- c #252201",
"; c #2B2300",
": c #2D2A02",
"> c #252209",
", c #2C270A",
"< c #2E2A0B",
"1 c #322600",
"2 c #392700",
"3 c #342B01",
"4 c #3B2D00",
"5 c #302708",
"6 c #332D09",
"7 c #392E0B",
"8 c #363003",
"9 c #3C3202",
"0 c #3E3803",
"q c #35310A",
"w c #3C350B",
"e c #3E390B",
"r c #342F12",
"t c #353012",
"y c #3E3612",
"u c #3D3912",
"i c #3E391A",
"p c #412F00",
"a c #433501",
"s c #493601",
"d c #443903",
"f c #4B3B02",
"g c #42360A",
"h c #433A0B",
"j c #4B3C0A",
"k c #513D02",
"l c #513F0E",
"z c #403710",
"x c #433B13",
"c c #4B3D11",
"v c #413D1A",
"b c #4D4205",
"n c #45420E",
"m c #4D430B",
"M c #534404",
"N c #5A4505",
"B c #554904",
"V c #5B4A05",
"C c #54450B",
"Z c #59450C",
"A c #55490C",
"S c #5A4A0C",
"D c #464112",
"F c #4E4412",
"G c #4E4813",
"H c #4C461A",
"J c #4F481E",
"K c #544512",
"L c #594612",
"P c #554A14",
"I c #5A4A12",
"U c #534518",
"Y c #5C4718",
"T c #54491B",
"R c #5B4C18",
"E c #5E5313",
"W c #5D531B",
"Q c #5C5819",
"! c #60480A",
"~ c #65540E",
"^ c #624F17",
"/ c #645314",
"( c #6A5714",
") c #665915",
"_ c #62531B",
"` c #665819",
"' c #69541B",
"] c #534A21",
"[ c #594D23",
"{ c #5C5123",
"} c #605326",
"| c #645826",
/* pixels */
"00g4d;-%%374w;#-#9ddKdCY/aad44sa4aKfZffNkMYjpj8#-+8<:13dadd:%3g3",
";&1g38w1w3&14&%#%hdACCp4L3Ad44sj24fCsfZssCL4ddD#<=::49h4a8333-16",
"0hh9438e11eg16X%;gaddMsp4fbd4jK4aj44s4as4aad41e-=#:8h:13818h31-w",
"38&4009933;:e:-@-3bAMaapdaPCaKCKahCC4Kaaa4d4j8:#==--8n33384%:36@",
"43g;ah8::%48;%#-;3aadCKTawg4g4Kg33gaaF[:8dajdd3@=<8:383;hhh14%:,",
"0:a4303:1w;w3--#-;0dfC3;%1;;;%;:33;;;;%68d34Cdh$==338d80:3hhg9%;",
"444hj%18189w9<-#-6h39d81;%6%1::---@6%<-%;;T4Cdg$-=+3d&:381;143q:",
"318d0d0083%;-->=-q30j3;%+#--13-::<-#--++-3Kda2g%==8ewg;#-ea41h1-",
"h3gad8dh884;1#%-#6:8dh6#+.XX.X+XO.o.XX.+#::3dg1%##%14z:qqwj&&1%;",
"ga943333;-4w;:+>#;:3G9:+.@iiy6w6eHe33v%++,9KjHx@#>;;g43<-%&4441u",
"3899333e8w1e6--#%%1Kdd1%+iy8U904dK1hdHt+=8:99nu#<=%4%&686843dh88",
":;%$g3:e661;8u-##:8fC4w#+8h9fd9ddClf906@:333;-u%-=%61;e8::8ad438",
"ee77%6:---66-<-++y3L24u#@:Pmas3C4SZfdC3+-8hmh8q#-=q:q;;6i3ew;3hh",
"-+%#:###%,;-6->+#udKKdw=+331Lfdl4ZZMBmg;:8df389@:#+-;%%%+;@-;%#-",
",656-,##><-;8-=+#:8a44--=0AdM4fd4ddsdA3@;344dCg&====%-#@-,%-%%%6",
"-%++o#++###+#++O+844j9-#=0ABafddCLdaMd:%:9KKdac@+=+++%@@++@o%o+@",
"++%&;;;%+%$%-;#+3a4jpgu##3E~b448Mfs4f9g$:81hsaj4X@@-:&$;@;*&&&;$",
"]TUFKPR_a0TUGG}CbCjKj3:#+wdBVAmdafCZCKc@-8d44Kdjx{I__b_PhUUgYjKP",
"s4aap4CkZf4CLfCfCdf44g-#+4CfCZkb4Ala4f6@;wKfsdL2ddffMf0mja4f0fjd",
"ffSsssCCCCd1CpsZAKsfj3;#%1KdMpsf4aaaAK3@;84424KCjfCCZdCa43adbddA",
"SsadCMjadKdPjlU4KdCKa&6%%3ffZsdbAdd4BMe@-:8ag49hacdsTKmmm94ddAf3",
"M4ZCfC1g901;&168;3816:,#+TC(pkS~Md4s)E8@:u81-<6%&wg2g4313adLfdj9",
"ffflAR:&>-;@%@##+=,>>#%@+1l(!!NMM/ZMMd,+#==#<=#-#+@;$%-;-ha12jK4",
"af4CP;1##+$++..+++++++#.+gkks~(~sdZS448+.#++++++..X+o+###3Ujppgc",
"LfZsK4T++++@X++.+++Xo..X@9Ad4d4pfsfNfdhX@+.X++...+#++X++%:8UCjsU",
"4pssa4e+X&y767,6-u7;5wv8Pm3a`f14sfsff^Ga8%,:t68<886q6y-.+:gf1&*2",
"Clpp438+X69b4cHhh414bnKmfgd4dSWCfCZkLfj3aFa4IRdbAARPdT6@;10afdSM",
"Capj09y..xCfpl44afCsd/ad424pIMfdddCf*fdC4&aadfAdbBfajhg+,;94pCdV",
"334pj3,+XwjM'CddsZ(sfMd4aKUg2dj41ddYllLSadfCkffSdfCL89x%%549g*4M",
"d0jgh:6@XhL!skff!kVfMRZapd4c&j44d&4Cjsa44AS/ZM4fSsspbdg+766jssfA",
"ddjKYa:+X4K^sZZCZB)43dmaCdas4ffAaKC3aaCa38df44fa4a2dAdD#%304sYCM",
"ds42K8:@XvjpLs4pff03dj4jSMakZMfdAdCZCafadLbCslCCCsaa003+#edda44d",
"Zf44d-6oXxjd24AMAdAbfCCfp4CKa8dddAMdsZf4dad4dLMNZN4dCdd%;wg84dff",
"sdjs3P:++vmbjjbad3ddf/fdd2lsadfAdMl4aZCfpCsjasVMNSfSA4H+;4aadaCf",
"falja8;+Xx4AaC3SMdES4dM/MNMfdaffMdMfma4C4CLaCdMa44daKH3$;93dfdCf",
"aKp24;7+XxmddfdB4BsdsNfCASMN39fC4Cfd1daBddaddsaddadda8ho&w3a1fff",
"Kdsjg4y+XHy3a0aM~VdsfssCCdfCdAdMfA4fAbb98a9CZaaSCZA0a0g@34gF401d",
"fCaKKg6X yJ0aKh8/CfLsg4g094AAf30fCs!VVfbPjUdKdKjfCPd3g6+:3;3aaKj",
"d4sf44wX.r,7577;77z57;<q18CAs4sZ4f~NfVd9:6qq:6:w6%6#;q<@%:h0jaaC",
"3Cdfdgw+XXXoXXX.XXXXXX.+8hf9lCsZlk/ssBK3+.+XXXoXXXXo.XX+$:3hd34f",
"4dllfLj3@%;3&;;;;---;-#++GmCdsIfss^kdC3X@$&1;&3&;11;&&&@agfjbAfA",
"CappfkCn0PA_KKKPWWndmheO+nAdad_fK42CKK6X$xU__YlKKPZCCKKKWddf4dd4",
"aflskMaajdCjjpKCdMfKYd:=%edddCddddCa04w+%6cad1d44j03b3;UU3aClads",
"LClfCZddIKCf&g44CffZCae#+gbaMMdb0Aaa4;-#<ywKsadCbbdPdaaKmjajpsjj",
"h1a4KddKPGa4P3dd4fmf*j9%#PAM^dMA08ddf48+:w94sZZZCPdddja3911nKa4w",
"8u;3&1;%1:34333h3412jsg##FfSk4983bCaKpT@-8-dfsL4%&3gh4;w3898&;3:",
"#=>-$$>##>&&57--9wjad4e+@gKCfdbdbfaZs47+:e0da4&;,#;%-%%>-%#><#%-",
"++##@..X..X++@+#-1gKKhy+X1apfaAddACfl46+=800Ka&%%..@+++++O.##+++",
"--:<<,%r--6%->++#39138<#+8KSd8fMfpCsBA3+-edaKd3%+#<----:#<6-:::5",
"::3-:;6-::;:;-++@ue00e--=gfdf4N(KfZMBA4$:4nd&:y+@@-6:6-;:;;:-3;:",
"08:;;&-0808983::%000d:8%@1LZlfkkksdaBB7o73d4h45;><%qw33:3e%:6eh0",
"n14:4488:0d893--:0008:e#%aSffZk'^s9ABd4%714337&;-#--eD09-%6&;-dh",
"83h1g13:8931h8-::80AAd;;+9bBddkf4daf9d7@68djdd:--@q:8wg33094w4%a",
"8;334333000a3-;::e81Ad:#+ePAb9TfamaF|c%o;444P44--+-:&:;;483;14gw",
"08833;6:8w;19:+<-e4dGawo@6w3::xcgg&57x&+;300h3h#--#:w308e;;;41&9",
"g111;4:3e-30z:=8-1fLf3g$X++#+#@@@+o@@@++#40Gh3%;:-<::13j38g;%&g4",
"gha0h;91w43gg@%:33sslZU4@+&;;%%%:$&%&;$X8d0dan;--#-q#3311he31h&1",
"11dda38%%;3449@q:34fs24T[]UHw1jLdUg}j&hHA8434Pw----%3ed8h-;83398",
"00d3dj8303gd08-<-;dspfCbK4a4aCVBA0YlfLa4ddCsYg3%=#:e889g133;339#",
":9;881-8weg113#<-;jKfabC9ajjfCM~CjaffC9mfsZk2&c&,-:ud8014eh98h38",
":%39898:;-;%e:#<--8m00P2&fCdpspCLIZZLpfflZsfsdg+--3w1;a4adhh4@43",
"88980h8:-63988=-=801d03alapssTU2&2paZfs!ZsLkdf9;--%34190a03338;3",
"&$h01146e3g408#::aasd8jl!skZkp4KsskkLfg2*4gsK38-:%;304d;1h3;1e30",
"7ggd4hz$1$:aa8:-;3ZZa0p2fs!NZ4gagfZZZ42142Td13w%--;hajf4841389hh"
};
